{
  "accessors": [
    {
      "bufferView": 0,
      "componentType": 5126,
      "count": 2923,
      "max": [
        0.5063264966011047,
        0.5211982131004333,
        0.8942707777023315
      ],
      "min": [
        -0.5065079927444458,
        -0.5206220149993896,
        -0.8940209746360779
      ],
      "type": "VEC3"
    },
    {
      "bufferView": 1,
      "componentType": 5125,
      "count": 4701,
      "type": "SCALAR"
    },
    {
      "bufferView": 2,
      "componentType": 5126,
      "count": 2923,
      "type": "VEC3"
    },
    {
      "bufferView": 3,
      "componentType": 5126,
      "count": 2923,
      "type": "VEC4"
    },
    {
      "bufferView": 4,
      "componentType": 5126,
      "count": 2923,
      "type": "VEC2"
    },
    {
      "bufferView": 5,
      "componentType": 5126,
      "count": 19428,
      "max": [
        0.5090466141700745,
        0.5211988091468811,
        0.8950894474983215
      ],
      "min": [
        -0.5065079927444458,
        -0.5206850171089172,
        -0.8940209746360779
      ],
      "type": "VEC3"
    },
    {
      "bufferView": 6,
      "componentType": 5125,
      "count": 37881,
      "type": "SCALAR"
    },
    {
      "bufferView": 7,
      "componentType": 5126,
      "count": 19428,
      "type": "VEC3"
    },
    {
      "bufferView": 8,
      "componentType": 5126,
      "count": 19428,
      "type": "VEC4"
    },
    {
      "bufferView": 9,
      "componentType": 5126,
      "count": 19428,
      "type": "VEC2"
    }
  ],
  "asset": {
    "version": "2.0"
  },
  "bufferViews": [
    {
      "buffer": 0,
      "byteLength": 35076,
      "target": 34962
    },
    {
      "buffer": 1,
      "byteLength": 18804,
      "target": 34963
    },
    {
      "buffer": 2,
      "byteLength": 35076,
      "target": 34962
    },
    {
      "buffer": 3,
      "byteLength": 46768,
      "target": 34962
    },
    {
      "buffer": 4,
      "byteLength": 23384,
      "target": 34962
    },
    {
      "buffer": 5,
      "byteLength": 233136,
      "target": 34962
    },
    {
      "buffer": 6,
      "byteLength": 151524,
      "target": 34963
    },
    {
      "buffer": 7,
      "byteLength": 233136,
      "target": 34962
    },
    {
      "buffer": 8,
      "byteLength": 310848,
      "target": 34962
    },
    {
      "buffer": 9,
      "byteLength": 155424,
      "target": 34962
    }
  ],
  "buffers": [
    {
      "byteLength": 35076,
      "uri": "data:application/octet-stream;base64,"
    },
    {
      "byteLength": 18804,
      "uri": "data:application/octet-stream;base64,"
    },
    {
      "byteLength": 35076,
      "uri": "data:application/octet-stream;base64,"
    },
    {
      "byteLength": 46768,
      "uri": "data:application/octet-stream;base64,"
    },
    {
      "byteLength": 23384,
      "uri": "data:application/octet-stream;base64,"
    },
    {
      "byteLength": 233136,
      "uri": "data:application/octet-stream;base64,"
    },
    {
      "byteLength": 151524,
      "uri": "data:application/octet-stream;base64,"
    },
    {
      "byteLength": 233136,
      "uri": "data:application/octet-stream;base64,"
    },
    {
      "byteLength": 310848,
      "uri": "data:application/octet-stream;base64,"
    },
    {
      "byteLength": 155424,
      "uri": "data:application/octet-stream;base64,"
    }
  ],
  "materials": [
    {
      "doubleSided": true,
      "name": "material_0",
      "normalTexture" : {
      "index" : 2,
      "scale" : 2
      },
      "pbrMetallicRoughness": {
        "baseColorTexture" : {"index" : 0},
        "metallicFactor" : 0,
        "metallicRoughnessTexture" : { "index" : 3 },
        "baseColorFactor": [
          1.0,
          1.0,
          1.0,
          1.0
        ]
      }
    }
  ],
  "images": [
    {
         "uri" : "2c8fc1f6d1a8489b84ac8b1d6f0823aa__texture_diffuse.png"
    },
    {
         "uri" : "3274df96999c485ab281bd6a45b21a29__texture_metallic.png"
    },
    {
         "uri" : "f9df59120cd54fc6a48f243407c027e6__texture_normal.png"
    },
    {
         "uri" : "fee0c74c7b854b3b9d54146a34e6cd4a__texture_roughness.png"
    }
  ],
  "textures": [
    {
         "source" : 0
    },
    {
         "source" : 1
    },
    {
         "source" : 2
    },
    {
         "source" : 3
    }
  ],
  "meshes": [
    {
      "primitives": [
        {
          "attributes": {
            "NORMAL": 2,
            "POSITION": 0,
            "TANGENT": 3,
            "TEXCOORD_0": 4
          },
          "indices": 1,
          "mode": 5
        }
      ]
    },
    {
      "primitives": [
        {
          "attributes": {
            "NORMAL": 7,
            "POSITION": 5,
            "TANGENT": 8,
            "TEXCOORD_0": 9
          },
          "indices": 6,
          "mode": 5
        }
      ]
    }
  ],
  "nodes": [
    {
      "mesh": 0,
      "name": "_gltfNode_0"
    },
    {
      "mesh": 1,
      "name": "_gltfNode_1"
    },
    {
      "children": [
        0,
        1
      ],
      "name": "GLTF Converted Scene",
      "rotation": [
        -0.7071067811865475,
        0.0,
        0.0,
        0.7071067811865476
      ],
      "scale": [
        1.0,
        1.0,
        1.0
      ],
      "translation": [
        0.0,
        0.0,
        0.0
      ]
    }
  ],
  "scene": 0,
  "scenes": [
    {
      "nodes": [
        2
      ]
    }
  ]
}
